<svg width="386" height="278" viewBox="0 0 386 278" fill="none" xmlns="http://www.w3.org/2000/svg">
<path d="M382.761 107.045C381.411 113.405 377.461 130.915 362.861 146.845C358.731 151.355 339.521 172.325 309.891 172.315C301.951 172.305 295.051 170.795 289.541 168.975C291.661 181.855 287.961 193.125 287.051 195.905C284.861 202.575 282.571 205.045 280.661 213.965C279.781 218.025 278.651 223.555 279.041 230.335C279.141 231.015 279.261 231.705 279.401 232.405C281.261 241.755 284.501 243.095 284.911 249.025C285.241 253.745 283.731 260.595 274.951 269.465C274.921 269.505 274.881 269.535 274.841 269.565C272.081 271.545 269.321 272.965 266.801 273.765C261.671 276.535 256.961 277.145 254.301 275.045C253.821 274.655 253.351 274.135 252.941 273.405C252.831 273.425 252.721 273.445 252.601 273.465C252.511 273.475 252.421 273.495 252.341 273.495C251.691 274.085 250.471 274.955 248.721 275.235C246.521 275.585 244.831 274.775 244.301 274.485C242.251 276.205 239.551 276.645 237.381 275.625C237.201 275.545 234.901 274.425 234.181 271.925C233.941 271.105 233.921 270.295 234.051 269.515C234.431 267.095 236.171 264.955 237.181 263.725C241.001 259.055 246.521 257.485 249.911 256.925C250.571 256.815 251.141 256.745 251.611 256.695C252.641 254.115 253.991 249.815 253.721 244.605C253.651 243.195 253.471 241.845 253.181 240.545C249.501 229.925 238.951 223.205 227.961 216.215C227.841 216.615 227.731 217.035 227.641 217.485C225.261 228.995 236.491 232.915 235.641 249.285C235.501 252.025 234.871 262.175 227.611 267.965C226.011 269.245 223.931 270.435 221.801 271.215C218.691 272.375 215.471 272.665 213.491 271.125C213.021 270.755 212.551 270.225 212.171 269.465C211.811 269.835 210.631 270.985 208.681 271.285C206.781 271.585 205.321 270.895 204.861 270.655C204.551 270.805 202.351 271.825 199.931 270.745C198.211 269.985 196.931 268.405 196.621 266.655C196.161 264.105 197.901 262.055 198.961 260.795C202.861 256.195 209.011 255.615 211.171 255.515C212.321 252.695 213.661 248.145 212.421 243.235C209.961 233.455 199.671 231.865 188.031 221.385C186.621 220.115 184.181 217.915 181.521 214.915C179.981 215.185 178.451 215.445 176.921 215.685C176.731 215.715 176.551 215.745 176.361 215.775C175.681 215.885 175.001 215.985 174.331 216.085C173.291 216.235 172.261 216.385 171.231 216.515H171.221C170.321 221.015 169.351 225.565 168.321 230.165C165.371 243.445 162.161 256.115 158.801 268.165C158.391 269.635 157.501 270.925 156.241 271.785C151.571 274.975 146.951 276.375 143.671 275.515C142.981 275.325 142.351 275.045 141.791 274.655C141.181 274.235 140.571 273.615 140.031 272.695C139.351 273.595 138.451 274.285 137.471 274.685C137.451 274.675 137.441 274.665 137.421 274.655C137.381 274.695 137.311 274.735 137.201 274.785C137.071 274.835 136.901 274.885 136.681 274.935C136.531 274.975 136.371 274.995 136.201 275.025C136.121 275.035 136.031 275.045 135.941 275.055C135.851 275.065 135.751 275.075 135.661 275.085C135.401 275.095 135.131 275.095 134.841 275.075C134.751 275.065 134.661 275.055 134.571 275.045C134.061 274.965 133.611 274.815 133.211 274.635C131.831 274.015 131.051 272.965 130.861 272.695C129.441 273.205 127.981 273.275 126.681 272.945C126.591 272.835 126.531 272.745 126.491 272.695C126.371 272.735 126.261 272.775 126.141 272.805C125.071 272.445 124.131 271.805 123.451 270.945C121.171 268.045 123.111 264.185 123.251 263.915C124.391 261.735 126.741 260.235 129.631 259.725C129.821 259.755 130.011 259.785 130.201 259.825V259.645C131.571 259.475 133.051 259.525 134.571 259.825C134.401 245.795 133.671 230.745 132.101 214.805C131.201 214.535 130.301 214.245 129.411 213.935C129.071 213.825 128.741 213.705 128.411 213.575C128.381 213.565 128.351 213.555 128.331 213.545C127.551 213.255 126.771 212.955 126.001 212.625C125.801 212.545 125.591 212.455 125.381 212.355C124.881 212.145 124.381 211.915 123.881 211.685C123.821 211.665 123.761 211.635 123.701 211.605C123.221 211.375 122.751 211.145 122.271 210.905C121.741 210.635 121.211 210.355 120.671 210.065C120.171 209.795 119.671 209.515 119.171 209.225C119.141 209.215 119.121 209.195 119.091 209.175C117.241 217.415 115.351 226.555 114.191 233.265C112.221 244.675 110.881 255.455 109.981 265.485C109.901 265.815 108.331 271.385 102.761 273.085C100.991 273.625 99.3406 273.625 97.9306 273.375H97.9206C95.4306 272.935 93.6906 271.745 93.4006 271.525C92.7106 273.135 91.2206 274.255 89.4906 274.455C86.9406 274.745 85.3106 272.835 85.2006 272.695C82.2606 274.165 78.8806 273.735 76.8106 271.725C74.9206 269.885 74.6006 267.205 75.0606 265.285C75.9306 261.665 80.0706 258.865 85.2006 259.045L81.6206 193.925C76.5206 193.495 71.8806 191.195 69.0106 187.435C64.6206 181.675 64.6006 172.785 69.2106 165.585C62.1306 163.945 56.8206 158.475 55.9406 152.115C54.9406 144.905 59.7506 137.305 67.5806 134.495C52.6506 129.955 38.5806 121.155 29.1406 111.735C21.8306 104.445 17.3006 96.785 17.3006 90.455C17.3006 85.735 19.1506 79.625 22.4206 73.045C19.7006 69.055 16.9706 64.395 14.5206 59.045C8.11064 45.065 6.21064 31.995 5.81064 22.425C4.18064 21.045 2.88064 19.365 2.03064 17.445C-0.0493581 12.745 0.270639 6.02501 3.98064 2.81501C11.6206 -3.80499 30.2206 7.32501 35.6306 10.565C41.8006 14.255 51.1206 20.985 59.9406 32.935C66.0806 29.495 72.5606 27.105 79.1506 26.265C80.9106 26.035 87.3506 18.455 93.2006 17.085C96.4306 16.335 87.6506 26.805 88.9206 26.825C90.8606 26.855 97.2806 20.805 99.2506 20.995C101.301 21.195 97.8106 28.085 99.8906 28.325C105.891 29.015 112.061 31.445 118.031 35.015C127.071 22.395 136.771 15.375 143.121 11.575C148.531 8.34502 167.131 -2.78498 174.771 3.82502C178.481 7.04502 178.801 13.765 176.721 18.455C175.871 20.375 174.561 22.065 172.931 23.445C172.511 32.995 170.581 45.965 164.231 59.825C161.351 66.105 158.081 71.435 154.911 75.855C157.541 81.365 159.041 86.445 159.041 90.455C159.041 94.465 157.021 99.175 153.491 103.975C157.151 105.725 161.301 107.475 165.891 109.095C201.401 121.575 225.581 111.985 253.631 122.335C252.841 108.025 256.431 98.865 260.131 92.995C268.661 79.405 281.031 78.055 294.291 65.115C296.931 62.545 299.601 59.505 302.281 55.825C311.071 43.765 312.021 35.695 312.231 32.995C313.281 19.505 306.271 9.00503 303.151 4.89503C314.651 3.54503 333.571 3.46501 351.111 14.275C352.041 14.845 352.941 15.435 353.821 16.045C354.061 16.215 354.301 16.385 354.531 16.545C355.271 17.065 355.991 17.605 356.701 18.155C357.051 18.435 357.401 18.705 357.741 18.985C358.091 19.275 358.431 19.555 358.771 19.845C359.281 20.275 359.781 20.715 360.271 21.155C360.751 21.595 361.231 22.045 361.711 22.505C362.021 22.805 362.331 23.115 362.641 23.425C363.261 24.045 363.861 24.665 364.441 25.305C364.741 25.625 365.031 25.955 365.311 26.275C365.891 26.925 366.451 27.595 367.001 28.275C367.261 28.595 367.521 28.915 367.771 29.235C367.991 29.515 368.201 29.795 368.411 30.075C368.941 30.775 369.451 31.475 369.941 32.195C370.281 32.675 370.611 33.165 370.941 33.655C371.231 34.095 371.521 34.545 371.801 34.995C372.051 35.385 372.291 35.775 372.521 36.175C372.751 36.565 372.981 36.945 373.201 37.325C373.401 37.655 373.591 37.995 373.771 38.335C373.981 38.695 374.181 39.055 374.371 39.415C374.611 39.865 374.851 40.315 375.071 40.775C375.371 41.365 375.661 41.955 375.951 42.545C376.091 42.825 376.221 43.105 376.351 43.395C376.561 43.865 376.771 44.325 376.981 44.805C377.231 45.355 377.461 45.905 377.691 46.455C377.841 46.815 377.991 47.195 378.141 47.565C378.311 47.965 378.461 48.375 378.611 48.775C378.821 49.305 379.011 49.835 379.201 50.365C379.731 51.835 380.221 53.325 380.661 54.815C380.801 55.285 380.941 55.755 381.071 56.235C381.291 56.975 381.491 57.715 381.681 58.455C381.961 59.535 382.221 60.615 382.461 61.695C382.461 61.705 382.461 61.715 382.471 61.725C385.981 77.625 385.531 94.045 382.761 107.045Z" fill="#5E717C" stroke="#5E717C" stroke-width="1.5" stroke-miterlimit="10"/>
<path d="M382.461 61.695C382.221 60.615 381.961 59.535 381.681 58.455C382.061 59.525 382.321 60.615 382.461 61.695Z" fill="#5E717C" stroke="#5E717C" stroke-width="1.5" stroke-miterlimit="10"/>
<path d="M126.681 272.945C126.501 272.915 126.321 272.855 126.141 272.805C126.261 272.775 126.371 272.735 126.491 272.695C126.531 272.745 126.591 272.835 126.681 272.945Z" fill="#5E717C" stroke="#5E717C" stroke-width="1.5" stroke-miterlimit="10"/>
<path d="M130.201 259.645V259.825C130.011 259.785 129.821 259.755 129.631 259.725C129.821 259.695 130.011 259.665 130.201 259.645Z" fill="#5E717C" stroke="#5E717C" stroke-width="1.5" stroke-miterlimit="10"/>
<path d="M135.661 275.085C135.391 275.115 135.111 275.105 134.841 275.075C135.131 275.095 135.401 275.095 135.661 275.085Z" fill="#5E717C" stroke="#5E717C" stroke-width="1.5" stroke-miterlimit="10"/>
<path d="M137.471 274.685C137.381 274.725 137.291 274.755 137.201 274.785C137.311 274.735 137.381 274.695 137.421 274.655C137.441 274.665 137.451 274.675 137.471 274.685Z" fill="#5E717C" stroke="#5E717C" stroke-width="1.5" stroke-miterlimit="10"/>
<path d="M134.571 275.045C134.101 274.995 133.621 274.865 133.211 274.635C133.611 274.815 134.061 274.965 134.571 275.045Z" fill="#5E717C" stroke="#5E717C" stroke-width="1.5" stroke-miterlimit="10"/>
<path d="M382.761 107.045C381.411 113.405 377.461 130.915 362.861 146.845C358.731 151.355 339.521 172.325 309.891 172.315C297.171 172.315 287.121 168.435 281.201 165.585C272.921 154.315 264.621 143.065 256.341 131.795L256.311 131.765C255.641 130.845 254.961 129.915 254.281 128.995C251.781 110.795 255.891 99.735 260.131 92.995C268.661 79.405 281.031 78.055 294.291 65.115C296.931 62.545 299.601 59.505 302.281 55.825C311.071 43.765 312.021 35.695 312.231 32.995C313.281 19.505 306.271 9.00501 303.151 4.89501C314.651 3.54501 333.571 3.46499 351.111 14.275C357.391 18.145 362.641 22.905 366.991 28.255C374.171 37.095 378.881 47.585 381.681 58.455C381.961 59.535 382.221 60.615 382.461 61.695C382.461 61.705 382.461 61.715 382.471 61.725C385.981 77.625 385.531 94.045 382.761 107.045Z" fill="#E2EBF2"/>
<path d="M375.511 96.115C370.301 111.915 364.221 121.235 357.091 128.705C351.431 134.645 344.361 139.145 338.751 142.365C324.641 150.465 309.881 149.375 299.341 148.605C293.591 148.185 285.281 147.075 275.531 143.925C271.191 142.425 263.421 139.085 256.341 131.795L256.311 131.765C255.641 130.845 254.961 129.915 254.281 128.995C251.781 110.795 255.891 99.735 260.131 92.995C268.661 79.405 281.031 78.055 294.291 65.115C296.931 62.545 299.601 59.505 302.281 55.825C311.071 43.765 312.021 35.695 312.231 32.995C313.281 19.505 306.271 9.00501 303.151 4.89501C314.651 3.54501 333.571 3.46499 351.111 14.275C357.391 18.145 362.641 22.905 366.991 28.255C370.281 34.345 372.721 40.865 374.431 47.525C374.711 48.605 374.971 49.685 375.211 50.765C375.211 50.775 375.211 50.785 375.221 50.795C377.821 59.095 381.921 76.675 375.511 96.115Z" fill="white"/>
<path d="M375.151 76.315C370.091 78.945 363.621 78.035 359.061 73.975C358.821 82.445 352.451 89.295 344.721 90.065C338.151 90.725 331.611 86.905 328.621 80.505C320.861 90.725 307.261 92.195 299.641 85.975C294.121 81.455 291.991 73.125 294.291 65.115C296.931 62.545 299.601 59.505 302.281 55.825C311.071 43.765 312.021 35.695 312.231 32.995C313.281 19.505 306.271 9.00501 303.151 4.89501C314.651 3.54501 333.571 3.46499 351.111 14.275C367.741 24.525 377.191 41.005 381.681 58.455C382.061 59.525 382.321 60.615 382.461 61.695C382.461 61.695 382.461 61.715 382.471 61.725C383.211 67.755 380.281 73.645 375.151 76.315Z" fill="#C2DBFE"/>
<path d="M242.281 195.625C238.181 208.355 229.661 207.715 227.641 217.485C225.261 228.995 236.491 232.915 235.641 249.285C235.501 252.025 234.871 262.175 227.611 267.965C226.011 269.245 223.931 270.435 221.801 271.215C218.691 272.375 215.471 272.665 213.491 271.125C213.021 270.755 212.551 270.225 212.171 269.465C211.811 269.835 210.631 270.985 208.681 271.285C206.781 271.585 205.321 270.895 204.861 270.655C204.551 270.805 202.351 271.825 199.931 270.745C198.211 269.985 196.931 268.405 196.621 266.655C196.161 264.105 197.901 262.055 198.961 260.795C202.861 256.195 209.011 255.615 211.171 255.515C212.321 252.695 213.661 248.145 212.421 243.235C209.961 233.455 199.671 231.865 188.031 221.385C184.211 217.945 172.871 207.765 169.831 192.935C166.831 178.215 173.131 165.365 176.811 159.235C188.221 150.245 202.541 146.905 215.301 150.135C217.521 150.695 219.701 151.465 221.801 152.425C223.521 153.215 236.361 159.355 241.881 173.505C242.651 175.475 245.711 184.935 242.281 195.625Z" fill="#E2EBF2"/>
<path d="M242.281 195.625C238.181 208.355 229.661 207.715 227.641 217.485C225.261 228.995 236.491 232.915 235.641 249.285C235.501 252.025 234.871 262.175 227.611 267.965C226.011 269.245 223.931 270.435 221.801 271.215C221.191 271.185 220.341 271.295 219.841 270.745C216.801 267.435 227.051 262.845 231.071 255.515C232.531 252.845 233.561 248.145 232.321 243.235C229.861 233.455 219.571 231.865 207.931 221.385C204.121 217.945 192.771 207.765 189.741 192.935C186.731 178.215 193.041 165.365 196.711 159.235C202.371 154.775 208.751 151.705 215.301 150.135C217.521 150.695 219.701 151.465 221.801 152.425C223.521 153.215 236.361 159.355 241.881 173.505C242.651 175.475 245.711 184.935 242.281 195.625Z" fill="white"/>
<path d="M122.351 195.435C119.951 204.855 116.081 222.295 114.191 233.265C112.221 244.675 110.881 255.455 109.981 265.485C109.901 265.815 108.331 271.385 102.761 273.085C100.991 273.625 99.3408 273.625 97.9308 273.375H97.9208C95.4308 272.935 93.6908 271.745 93.4008 271.525C92.7108 273.135 91.2208 274.255 89.4908 274.455C86.9408 274.745 85.3108 272.835 85.2008 272.695C82.2608 274.165 78.8808 273.735 76.8108 271.725C74.9208 269.885 74.6008 267.205 75.0608 265.285C75.9308 261.665 80.0708 258.865 85.2008 259.045L80.4908 173.425L80.3208 170.265C93.7908 181.055 108.881 184.635 122.351 195.435Z" fill="#E2EBF2"/>
<path d="M118.251 195.435C115.851 204.855 111.981 222.295 110.091 233.265C108.121 244.675 106.781 255.455 105.881 265.485C105.801 265.815 104.231 271.385 98.6608 273.085C98.4108 273.165 98.1708 273.255 97.9308 273.375H97.9208C95.4308 272.935 93.6908 271.745 93.4008 271.525C92.7108 273.135 91.2208 274.255 89.4908 274.455C86.9408 274.745 85.3108 272.835 85.2008 272.695C82.2608 274.165 78.8808 273.735 76.8108 271.725C74.9208 269.885 74.6008 267.205 75.0608 265.285C75.9308 261.665 80.0708 258.865 85.2008 259.045L80.4908 173.425C92.8208 181.885 106.191 185.765 118.251 195.435Z" fill="white"/>
<path d="M288.231 176.705C267.601 188.785 248.261 196.985 231.481 202.625C218.921 206.845 207.801 209.635 198.671 211.535C168.811 217.755 139.961 223.345 115.841 207.145C106.891 201.135 101.141 193.835 97.6907 188.605C111.931 158.005 126.181 127.405 140.421 96.795C145.711 100.115 154.421 105.065 165.891 109.095C205.891 123.155 231.501 109.215 264.481 127.285C273.241 132.085 279.161 137.295 283.251 144.215C290.791 156.945 289.301 170.625 288.231 176.705Z" fill="white"/>
<path d="M271.841 179.925C257.911 188.405 244.401 195.995 231.481 202.625C218.921 206.845 207.801 209.635 198.671 211.535C168.811 217.755 139.961 223.345 115.841 207.145C106.891 201.135 101.141 193.835 97.6907 188.605L117.591 145.975C124.311 154.125 132.671 162.175 143.061 169.095C194.901 203.645 258.321 184.355 271.841 179.925Z" fill="#9A9A9A"/>
<path d="M284.911 249.015C285.241 253.735 283.731 260.585 274.951 269.455C274.921 269.495 274.881 269.525 274.841 269.555C268.231 274.285 261.621 275.885 258.261 273.265C257.701 272.825 257.151 272.205 256.701 271.305C256.281 271.745 254.891 273.095 252.601 273.455C250.361 273.805 248.651 272.995 248.111 272.705C246.031 274.425 243.301 274.865 241.091 273.845C240.911 273.765 238.581 272.645 237.851 270.145C237.611 269.325 237.591 268.515 237.721 267.735C238.161 266.985 238.621 266.345 238.981 265.845C243.191 259.945 250.181 258.285 253.071 257.775C253.311 257.025 253.571 256.145 253.801 255.145C254.391 252.595 254.801 249.275 254.341 245.555C251.071 219.285 209.411 215.165 199.291 187.925C197.911 184.195 196.901 179.465 197.181 173.535C197.941 156.975 210.361 139.235 218.951 145.965C220.941 147.525 230.281 134.195 234.071 133.665C241.751 132.585 249.521 133.315 256.761 136.025C258.851 136.805 274.421 142.905 282.101 159.035C289.571 174.705 285.411 191.085 284.531 194.535C282.801 201.355 280.661 203.995 279.371 213.025C278.701 217.715 277.811 224.345 279.401 232.395C281.261 241.745 284.501 243.085 284.911 249.015Z" fill="#E2EBF2"/>
<path d="M280.661 213.965C279.661 218.595 278.321 225.145 279.311 233.285C280.461 242.745 283.561 244.315 283.551 250.265C283.531 255.235 281.341 262.435 270.761 271.235C270.731 271.275 270.691 271.305 270.651 271.335C264.131 276.065 257.621 277.665 254.301 275.045C253.751 274.605 253.211 273.985 252.761 273.085C252.351 273.525 250.981 274.875 248.721 275.235C246.511 275.585 244.831 274.775 244.291 274.485C242.241 276.205 239.551 276.645 237.371 275.625C237.191 275.545 234.901 274.425 234.181 271.925C233.941 271.105 233.921 270.295 234.051 269.515C234.421 267.095 236.171 264.955 237.181 263.725C241.011 259.055 246.521 257.485 249.911 256.925C250.571 256.815 251.141 256.745 251.621 256.695C252.651 254.115 254.001 249.815 253.731 244.605C252.401 218.165 211.731 211.035 203.711 183.135C201.921 176.885 201.321 168.055 205.841 155.975C208.551 148.735 213.461 142.585 219.781 138.435C221.601 137.235 223.561 136.195 225.601 135.355C238.221 130.155 252.051 129.995 263.921 135.525C265.921 136.455 280.801 143.665 287.201 160.305C293.421 176.485 288.171 192.515 287.051 195.905C284.861 202.575 282.571 205.045 280.661 213.965Z" fill="white"/>
<path d="M170.751 181.865C176.021 172.205 177.541 181.165 176.691 186.475C174.451 200.425 171.691 215.025 168.321 230.165C165.371 243.445 162.151 256.115 158.801 268.165C158.391 269.635 157.501 270.925 156.241 271.785C151.571 274.975 146.951 276.375 143.671 275.515C142.981 275.325 142.351 275.045 141.791 274.655C141.181 274.235 140.571 273.615 140.031 272.695C139.351 273.595 138.451 274.285 137.471 274.685C136.551 275.065 135.551 275.195 134.571 275.045C134.061 274.965 133.611 274.815 133.211 274.635C131.831 274.015 131.051 272.965 130.861 272.695C129.441 273.205 127.981 273.275 126.681 272.945C126.501 272.915 126.321 272.855 126.141 272.805C125.071 272.445 124.131 271.805 123.451 270.945C121.171 268.045 123.111 264.185 123.251 263.915C124.391 261.735 126.741 260.235 129.631 259.725C129.821 259.695 130.011 259.665 130.201 259.645C131.571 259.475 133.051 259.525 134.571 259.825C134.371 243.225 133.381 225.185 131.161 205.955C129.881 194.855 124.411 163.015 122.471 152.075C122.431 151.845 122.391 151.615 122.351 151.405C136.811 152.115 162.881 196.295 170.751 181.865Z" fill="#E2EBF2"/>
<path d="M175.051 172.315C172.561 189.355 168.171 211.235 163.951 230.165C161.171 242.685 158.161 254.655 155.011 266.075C154.131 269.255 151.981 271.935 149.071 273.485C147.191 274.485 145.361 275.175 143.671 275.515C142.981 275.325 142.351 275.045 141.791 274.655C141.181 274.235 140.571 273.615 140.031 272.695C139.351 273.595 138.451 274.285 137.471 274.685C137.451 274.685 137.441 274.665 137.421 274.655C137.161 274.925 134.791 275.495 133.211 274.635C131.831 274.015 131.051 272.965 130.861 272.695C129.441 273.205 127.981 273.275 126.681 272.945C126.591 272.835 126.531 272.745 126.491 272.695C126.371 272.735 126.261 272.775 126.141 272.805C125.071 272.445 124.131 271.805 123.451 270.945C121.171 268.045 123.111 264.185 123.251 263.915C124.391 261.735 126.741 260.235 129.631 259.725C129.821 259.755 130.011 259.785 130.201 259.825V259.645C131.571 259.475 133.051 259.525 134.571 259.825C134.371 243.225 133.381 225.185 131.161 205.955C129.881 194.855 124.291 159.875 122.351 148.935C138.751 152.865 159.221 171.535 175.051 172.315Z" fill="white"/>
<path d="M71.1508 133.575C61.2508 135.085 54.7908 143.855 55.9308 152.115C56.8108 158.475 62.1208 163.945 69.2008 165.575C64.5908 172.785 64.6108 181.675 69.0008 187.425C74.8908 195.145 88.2508 196.725 97.6808 188.595C100.171 196.925 108.321 201.865 115.831 200.495C124.501 198.915 130.781 189.195 127.931 179.425C134.151 180.255 140.251 177.875 143.541 173.185C147.971 166.855 146.731 157.145 139.831 151.135C150.951 148.405 152.611 132.445 146.771 126.075C140.331 119.055 131.901 117.785 124.611 119.715C106.791 123.945 88.9708 129.345 71.1508 133.565V133.575Z" fill="#C2DBFE"/>
<path d="M173.011 17.055L113.891 41.305L151.351 80.515C155.551 75.355 160.261 68.495 164.231 59.835C172.141 42.565 173.191 26.675 173.011 17.065V17.055Z" fill="#9A9A9A"/>
<path d="M5.74087 16.275L64.8609 40.525L27.4009 79.735C23.2009 74.575 18.4909 67.715 14.5209 59.055C6.61087 41.785 5.56087 25.895 5.74087 16.285V16.275Z" fill="#9A9A9A"/>
<path d="M113.891 41.285C123.991 24.645 135.791 15.965 143.131 11.575C148.531 8.345 167.131 -2.785 174.771 3.825C178.491 7.045 178.811 13.765 176.721 18.455C173.851 24.915 165.891 28.765 157.401 27.045C158.321 30.185 157.771 32.195 157.321 33.255C155.071 38.515 146.151 41.265 135.351 38.705C135.471 39.175 136.271 42.365 134.381 44.805C132.341 47.435 127.981 48.175 124.231 45.975C120.781 44.415 117.341 42.855 113.891 41.295V41.285Z" fill="#C2DBFE"/>
<path d="M64.8608 40.275C54.7608 23.635 42.9608 14.955 35.6208 10.565C30.2208 7.33499 11.6208 -3.79501 3.98076 2.81499C0.260761 6.03499 -0.0592355 12.755 2.03076 17.445C4.90076 23.905 12.8608 27.755 21.3508 26.035C20.4308 29.175 20.9808 31.185 21.4308 32.245C23.6808 37.505 32.6008 40.255 43.4008 37.695C43.2808 38.165 42.4808 41.355 44.3708 43.795C46.4108 46.425 50.7708 47.165 54.5208 44.965C57.9708 43.405 61.4108 41.845 64.8608 40.285V40.275Z" fill="#C2DBFE"/>
<path d="M159.041 90.455C159.041 108.105 120.521 137.675 87.6808 137.675C66.1008 137.675 42.7808 125.345 29.1408 111.735C21.8308 104.445 17.3008 96.785 17.3008 90.455C17.3008 71.525 46.9608 30.355 79.1508 26.265C80.9108 26.035 87.3508 18.455 93.2008 17.085C96.4308 16.335 87.6508 26.805 88.9208 26.825C90.8608 26.855 97.2808 20.805 99.2508 20.995C101.301 21.195 97.8108 28.085 99.8908 28.325C110.071 29.495 120.711 35.665 130.111 43.915C146.441 58.225 159.041 78.815 159.041 90.455Z" fill="#E2EBF2"/>
<path d="M154.841 86.565C154.841 104.215 116.331 133.785 83.4908 133.785C63.9808 133.785 43.0608 123.715 29.1408 111.735C21.8308 104.445 17.3008 96.785 17.3008 90.455C17.3008 71.525 46.9608 30.355 79.1508 26.265C80.9108 26.035 87.3508 18.455 93.2008 17.085C96.4308 16.335 87.6508 26.805 88.9208 26.825C90.8608 26.855 97.2808 20.805 99.2508 20.995C101.301 21.195 97.8108 28.085 99.8908 28.325C110.071 29.495 120.711 35.665 130.111 43.915C144.351 57.865 154.841 75.945 154.841 86.565Z" fill="white"/>
<path d="M57.1507 93.755C62.0826 93.755 66.0807 89.7569 66.0807 84.825C66.0807 79.8931 62.0826 75.895 57.1507 75.895C52.2188 75.895 48.2207 79.8931 48.2207 84.825C48.2207 89.7569 52.2188 93.755 57.1507 93.755Z" fill="#1D1D1B"/>
<path d="M60.8107 87.185C61.9429 87.185 62.8607 86.2672 62.8607 85.135C62.8607 84.0028 61.9429 83.085 60.8107 83.085C59.6785 83.085 58.7607 84.0028 58.7607 85.135C58.7607 86.2672 59.6785 87.185 60.8107 87.185Z" fill="white"/>
<path d="M117.151 93.755C122.083 93.755 126.081 89.7569 126.081 84.825C126.081 79.8931 122.083 75.895 117.151 75.895C112.219 75.895 108.221 79.8931 108.221 84.825C108.221 89.7569 112.219 93.755 117.151 93.755Z" fill="#1D1D1B"/>
<path d="M120.301 86.875C121.433 86.875 122.351 85.9572 122.351 84.825C122.351 83.6928 121.433 82.775 120.301 82.775C119.169 82.775 118.251 83.6928 118.251 84.825C118.251 85.9572 119.169 86.875 120.301 86.875Z" fill="white"/>
<path d="M95.2207 104.745C93.1107 104.985 90.7407 105.145 88.1607 105.145C85.5907 105.145 83.2307 104.985 81.1307 104.745C80.9707 104.745 80.1307 104.725 79.4407 104.045C79.0107 103.615 78.7407 103.015 78.7407 102.355V102.135C78.7407 100.825 79.8107 99.745 81.1307 99.745H95.2207C96.5307 99.745 97.6107 100.815 97.6107 102.135V102.355C97.6107 103.665 96.5407 104.745 95.2207 104.745Z" fill="#1D1D1B"/>
</svg>
